<?xml version="1.0" encoding="UTF-8" standalone="no"?>
<svg
   xmlns:dc="http://purl.org/dc/elements/1.1/"
   xmlns:cc="http://creativecommons.org/ns#"
   xmlns:rdf="http://www.w3.org/1999/02/22-rdf-syntax-ns#"
   xmlns:svg="http://www.w3.org/2000/svg"
   xmlns="http://www.w3.org/2000/svg"
   id="svg4692"
   version="1.1"
   viewBox="0 0 39.687499 13.229167"
   height="50"
   width="150">
  <defs
     id="defs4686">
    <clipPath
       id="clipPath18"
       clipPathUnits="userSpaceOnUse">
      <path
         id="path16"
         d="M 0,500 H 500 V 0 H 0 Z" />
    </clipPath>
  </defs>
  <metadata
     id="metadata4689">
    <rdf:RDF>
      <cc:Work
         rdf:about="">
        <dc:format>image/svg+xml</dc:format>
        <dc:type
           rdf:resource="http://purl.org/dc/dcmitype/StillImage" />
        <dc:title></dc:title>
      </cc:Work>
    </rdf:RDF>
  </metadata>
  <g
     transform="translate(0,-283.77082)"
     id="layer1">
    <g
       transform="matrix(1.134019,0,0,1.134019,-5.284242,-37.006674)"
       id="g5927">
      <g
         id="g20"
         transform="matrix(0.05375038,0,0,-0.05375038,8.7695566,288.37632)">
        <path
           d="m 0,0 c -19.014,20.197 -37.573,20.855 -61.718,19.579 l -0.133,2.514 c 24.023,1.269 43.968,0.577 63.684,-20.367 z"
           style="fill:#ffffff;fill-opacity:1;fill-rule:nonzero;stroke:none"
           id="path22" />
      </g>
      <g
         id="g24"
         transform="matrix(0.05375038,0,0,-0.05375038,8.9271096,289.42627)">
        <path
           d="m 0,0 c -0.366,0 -0.716,0.16 -0.957,0.44 -20.908,24.451 -39.49,25.29 -65.448,23.78 -0.701,-0.039 -1.29,0.49 -1.33,1.184 -0.04,0.694 0.49,1.289 1.184,1.33 25.447,1.48 45.197,0.649 66.382,-23.36 15.719,24.905 30.429,25.759 49.375,24.214 0.693,-0.056 1.209,-0.664 1.152,-1.357 C 50.301,25.538 49.695,25.019 49.001,25.079 30.013,26.627 16.421,25.76 1.075,0.604 0.865,0.259 0.503,0.036 0.101,0.004 0.067,0.001 0.034,0 0,0"
           style="fill:#ffffff;fill-opacity:1;fill-rule:nonzero;stroke:none"
           id="path26" />
      </g>
      <g
         id="g28"
         transform="matrix(0.05375038,0,0,-0.05375038,9.0352393,290.3787)">
        <path
           d="M 0,0 -1.167,1.247 C -23.243,24.81 -33.536,28.953 -70,28.953 v 2.518 c 36.338,0 47.813,-4.374 69.51,-27.271 15.43,26.1 32.636,28.429 48.95,27.006 L 48.241,28.697 C 30,30.291 14.959,26.273 0.846,1.484 Z"
           style="fill:#ffffff;fill-opacity:1;fill-rule:nonzero;stroke:none"
           id="path30" />
      </g>
      <g
         id="g32"
         transform="matrix(0.05375038,0,0,-0.05375038,8.4669205,285.69062)">
        <path
           d="m 0,0 c -31.241,0 -56.657,-25.417 -56.657,-56.658 0,-31.241 25.416,-56.657 56.657,-56.657 31.242,0 56.658,25.416 56.658,56.657 C 56.658,-25.417 31.242,0 0,0 m 0,-123.388 c -36.795,0 -66.73,29.935 -66.73,66.73 0,36.795 29.935,66.73 66.73,66.73 36.795,0 66.73,-29.935 66.73,-66.73 0,-36.795 -29.935,-66.73 -66.73,-66.73"
           style="fill:#ffffff;fill-opacity:1;fill-rule:nonzero;stroke:none"
           id="path34" />
      </g>
      <g
         id="g36"
         transform="matrix(0.05375038,0,0,-0.05375038,6.5900701,290.64662)">
        <path
           d="m 0,0 c -6.683,0 -13.992,1.877 -22.3,5.67 l 3.136,6.872 C 0.449,3.59 16.129,4.187 33.153,34.501 c 0.273,0.499 0.543,0.988 0.816,1.474 0.026,0.046 0.052,0.093 0.077,0.14 l 0.321,0.592 c 0.07,0.13 0.147,0.254 0.23,0.372 7.763,13.525 15.814,21.966 25.077,26.367 10.087,4.795 20.721,4.263 30.749,3.308 L 89.707,59.233 C 69.798,61.129 56.277,60.227 40.692,32.524 40.691,32.521 40.689,32.518 40.687,32.515 L 38.491,28.46 C 38.337,28.174 38.15,27.916 37.939,27.688 29.789,14.031 21.422,5.869 11.885,2.19 8.107,0.733 4.176,0 0,0"
           style="fill:#ffffff;fill-opacity:1;fill-rule:nonzero;stroke:none"
           id="path38" />
      </g>
      <g
         id="g40"
         transform="matrix(0.08838037,0,0,-0.08838037,15.224506,286.36014)">
        <path
           d="m 0,0 c 4.06,-1.428 10.44,-3.48 10.44,-9.37 0,-6.112 -3.836,-9.325 -11.734,-9.325 -4.685,0 -8.165,1.74 -10.173,3.525 v 3.926 c 2.008,-1.74 6.782,-4.149 10.173,-4.149 5.8,0 8.031,2.498 8.031,6.023 0,3.435 -4.55,4.863 -8.477,6.202 -3.614,1.249 -9.637,3.524 -9.637,8.968 0,6.38 5.175,8.7 10.217,8.7 4.64,0 7.63,-1.606 9.101,-3.078 V 7.629 C 6.47,9.279 3.212,11.154 -1.16,11.154 -5.31,11.154 -7.674,9.592 -7.674,5.8 -7.674,2.677 -3.614,1.293 0,0"
           style="fill:#ffffff;fill-opacity:1;fill-rule:nonzero;stroke:none"
           id="path42" />
      </g>
      <g
         id="g44"
         transform="matrix(0.08838037,0,0,-0.08838037,18.654769,285.20878)">
        <path
           d="M 0,0 3.48,1.071 V -31.231 H 0 v 14.233 h -18.873 v -14.233 h -3.48 V 0 l 3.48,1.071 V -13.831 H 0 Z"
           style="fill:#ffffff;fill-opacity:1;fill-rule:nonzero;stroke:none"
           id="path46" />
      </g>
      <g
         id="g48"
         transform="matrix(0.08838037,0,0,-0.08838037,22.1678,286.55736)">
        <path
           d="m 0,0 c 0,7.317 -5.8,13.475 -13.117,13.475 -7.317,0 -13.117,-6.158 -13.117,-13.475 0,-7.362 5.8,-13.474 13.117,-13.474 C -5.8,-13.474 0,-7.362 0,0 m -29.804,0 c 0,9.191 7.496,16.687 16.687,16.687 9.146,0 16.686,-7.496 16.686,-16.687 0,-9.19 -7.54,-16.687 -16.686,-16.687 -9.191,0 -16.687,7.497 -16.687,16.687"
           style="fill:#ffffff;fill-opacity:1;fill-rule:nonzero;stroke:none"
           id="path50" />
      </g>
      <g
         id="g52"
         transform="matrix(0.08838037,0,0,-0.08838037,23.366203,286.44697)">
        <path
           d="m 0,0 h 5.89 c 4.328,0 7.852,1.295 7.852,5.756 0,4.506 -3.524,5.756 -7.852,5.756 H 0 Z m 17.312,5.756 c 0,-5.399 -2.946,-7.674 -6.96,-8.522 l 8.7,-12.76 -2.678,-2.187 -9.727,14.545 H 5.89 0 V -17.222 H -3.524 V 14.68 H 5.89 c 6.067,0 11.422,-1.652 11.422,-8.924"
           style="fill:#ffffff;fill-opacity:1;fill-rule:nonzero;stroke:none"
           id="path54" />
      </g>
      <g
         id="g56"
         transform="matrix(0.08838037,0,0,-0.08838037,27.230254,287.68904)">
        <path
           d="M 0,0 -1.071,-3.168 H -19.542 V 28.866 H 0 L -1.071,25.699 H -16.062 V 14.321 h 13.251 l -1.071,-3.123 h -12.18 V 0 Z"
           style="fill:#ffffff;fill-opacity:1;fill-rule:nonzero;stroke:none"
           id="path58" />
      </g>
      <g
         id="g60"
         transform="matrix(0.08838037,0,0,-0.08838037,27.951535,287.66151)">
        <path
           d="m 0,0 h 7.451 c 3.748,0 6.515,2.678 6.515,5.979 0,3.302 -2.767,5.979 -6.515,5.979 H 0 Z m 0,15.438 h 6.336 c 3.971,0 6.202,1.562 6.202,4.908 0,3.301 -2.231,4.685 -6.202,4.685 H 0 Z m 16.062,4.908 c 0,-3.481 -1.293,-5.444 -3.836,-6.604 C 15.527,12.404 17.49,10.084 17.49,5.979 17.49,0 12.85,-3.479 6.336,-3.479 h -9.815 v 32.034 h 9.815 c 6.514,0 9.726,-2.9 9.726,-8.209"
           style="fill:#ffffff;fill-opacity:1;fill-rule:nonzero;stroke:none"
           id="path62" />
      </g>
      <g
         id="g64"
         transform="matrix(0.08838037,0,0,-0.08838037,30.36059,286.44697)">
        <path
           d="m 0,0 h 5.89 c 4.327,0 7.852,1.295 7.852,5.756 0,4.506 -3.525,5.756 -7.852,5.756 H 0 Z m 17.312,5.756 c 0,-5.399 -2.946,-7.674 -6.96,-8.522 l 8.7,-12.76 -2.678,-2.187 -9.726,14.545 H 5.89 0 V -17.222 H -3.524 V 14.68 H 5.89 c 6.067,0 11.422,-1.652 11.422,-8.924"
           style="fill:#ffffff;fill-opacity:1;fill-rule:nonzero;stroke:none"
           id="path66" />
      </g>
      <g
         id="g68"
         transform="matrix(0.08838037,0,0,-0.08838037,34.22473,287.68904)">
        <path
           d="M 0,0 -1.071,-3.168 H -19.542 V 28.866 H 0 L -1.071,25.699 H -16.062 V 14.321 h 13.251 l -1.071,-3.123 h -12.18 V 0 Z"
           style="fill:#ffffff;fill-opacity:1;fill-rule:nonzero;stroke:none"
           id="path70" />
      </g>
      <g
         id="g72"
         transform="matrix(0.08838037,0,0,-0.08838037,35.608519,285.83176)">
        <path
           d="M 0,0 -5.845,-13.921 H 5.89 Z M 7.184,-17.088 H -7.184 l -2.989,-7.095 h -3.479 L 0,8.209 13.652,-24.183 h -3.479 z"
           style="fill:#ffffff;fill-opacity:1;fill-rule:nonzero;stroke:none"
           id="path74" />
      </g>
      <g
         id="g76"
         transform="matrix(0.08838037,0,0,-0.08838037,37.875511,286.92011)">
        <path
           d="m 0,0 -3.392,-3.882 v -7.986 h -3.479 v 31.231 l 3.479,1.072 V 0.937 L 13.563,20.166 15.928,18.025 2.319,2.588 17.578,-10.173 14.901,-12.359 Z"
           style="fill:#ffffff;fill-opacity:1;fill-rule:nonzero;stroke:none"
           id="path78" />
      </g>
      <g
         id="g80"
         transform="matrix(0.08838037,0,0,-0.08838037,15.725269,292.25651)">
        <path
           d="m 0,0 c -9.19,0 -16.687,7.496 -16.687,16.687 0,9.191 7.497,16.686 16.687,16.686 0,0 4.997,0.224 9.682,-3.123 v -4.506 c 0,0 -3.435,4.417 -9.682,4.417 -7.317,0 -13.117,-6.157 -13.117,-13.474 0,-7.362 5.8,-13.474 13.117,-13.474 5.89,0 9.28,3.926 9.638,4.372 V 3.078 C 4.997,-0.223 0,0 0,0"
           style="fill:#ffffff;fill-opacity:1;fill-rule:nonzero;stroke:none"
           id="path82" />
      </g>
      <g
         id="g84"
         transform="matrix(0.08838037,0,0,-0.08838037,17.463879,290.67136)">
        <path
           d="m 0,0 h 5.89 c 4.328,0 7.852,1.294 7.852,5.756 0,4.506 -3.524,5.756 -7.852,5.756 H 0 Z m 17.312,5.756 c 0,-5.399 -2.946,-7.674 -6.96,-8.522 l 8.7,-12.76 -2.678,-2.187 -9.727,14.546 H 5.89 0 V -17.222 H -3.524 V 14.679 H 5.89 c 6.067,0 11.422,-1.651 11.422,-8.923"
           style="fill:#ffffff;fill-opacity:1;fill-rule:nonzero;stroke:none"
           id="path86" />
      </g>
      <g
         id="g88"
         transform="matrix(0.08838037,0,0,-0.08838037,21.32801,291.91344)">
        <path
           d="M 0,0 -1.071,-3.168 H -19.542 V 28.867 H 0 L -1.071,25.699 H -16.062 V 14.321 h 13.251 l -1.071,-3.123 h -12.18 V 0 Z"
           style="fill:#ffffff;fill-opacity:1;fill-rule:nonzero;stroke:none"
           id="path90" />
      </g>
      <g
         id="g92"
         transform="matrix(0.08838037,0,0,-0.08838037,22.711808,290.05615)">
        <path
           d="M 0,0 -5.845,-13.921 H 5.89 Z M 7.184,-17.089 H -7.184 l -2.989,-7.094 h -3.48 L 0,8.209 13.652,-24.183 h -3.479 z"
           style="fill:#ffffff;fill-opacity:1;fill-rule:nonzero;stroke:none"
           id="path94" />
      </g>
      <g
         id="g96"
         transform="matrix(0.08838037,0,0,-0.08838037,25.447976,289.65395)">
        <path
           d="M 0,0 V -28.733 H -3.479 V 0 h -10.932 l 1.071,3.167 H 10.932 L 9.86,0 Z"
           style="fill:#ffffff;fill-opacity:1;fill-rule:nonzero;stroke:none"
           id="path98" />
      </g>
      <g
         id="g100"
         transform="matrix(0.08838037,0,0,-0.08838037,26.906765,289.43317)">
        <path
           d="M 0,0 3.479,1.071 V -31.231 H 0 Z"
           style="fill:#ffffff;fill-opacity:1;fill-rule:nonzero;stroke:none"
           id="path102" />
      </g>
      <g
         id="g104"
         transform="matrix(0.08838037,0,0,-0.08838037,27.667578,289.43317)">
        <path
           d="M 0,0 3.525,1.071 13.832,-23.513 24.183,1.071 27.663,0 13.832,-31.723 Z"
           style="fill:#ffffff;fill-opacity:1;fill-rule:nonzero;stroke:none"
           id="path106" />
      </g>
      <g
         id="g108"
         transform="matrix(0.08838037,0,0,-0.08838037,32.292788,291.91344)">
        <path
           d="M 0,0 -1.071,-3.168 H -19.542 V 28.867 H 0 L -1.071,25.699 H -16.062 V 14.321 h 13.251 l -1.071,-3.123 h -12.18 V 0 Z"
           style="fill:#ffffff;fill-opacity:1;fill-rule:nonzero;stroke:none"
           id="path110" />
      </g>
    </g>
  </g>
</svg>
